<svg width="189" height="19" viewBox="0 0 189 19" fill="none" xmlns="http://www.w3.org/2000/svg">
<path d="M7.175 18.3C6.15833 18.3 5.23333 18.0833 4.4 17.65C3.58333 17.2167 2.88333 16.6 2.3 15.8C1.71667 15 1.26667 14.05 0.95 12.95C0.65 11.85 0.5 10.625 0.5 9.275C0.5 8.20833 0.6 7.21667 0.8 6.3C1 5.36667 1.29167 4.53333 1.675 3.8C2.05833 3.05 2.525 2.41667 3.075 1.9C3.625 1.36667 4.24167 0.958332 4.925 0.675C5.625 0.391666 6.38333 0.249999 7.2 0.249999C8 0.249999 8.74167 0.391666 9.425 0.675C10.125 0.958332 10.7417 1.39167 11.275 1.975C11.825 2.55833 12.2917 3.29167 12.675 4.175C13.0583 5.05833 13.3333 6.1 13.5 7.3L9.225 7.7C9.15833 6.7 9.025 5.9 8.825 5.3C8.625 4.7 8.375 4.275 8.075 4.025C7.79167 3.75833 7.475 3.625 7.125 3.625C6.825 3.625 6.55 3.71667 6.3 3.9C6.06667 4.06667 5.85 4.31667 5.65 4.65C5.46667 4.96667 5.30833 5.35833 5.175 5.825C5.04167 6.275 4.94167 6.79167 4.875 7.375C4.80833 7.95833 4.775 8.59167 4.775 9.275C4.775 10.4083 4.86667 11.4 5.05 12.25C5.25 13.1 5.525 13.7583 5.875 14.225C6.225 14.6917 6.63333 14.925 7.1 14.925C7.48333 14.925 7.825 14.7667 8.125 14.45C8.44167 14.1333 8.69167 13.7 8.875 13.15C9.075 12.5833 9.19167 11.925 9.225 11.175L13.45 11.375C13.3833 12.4083 13.1833 13.35 12.85 14.2C12.5333 15.05 12.1 15.7833 11.55 16.4C11 17 10.3583 17.4667 9.625 17.8C8.89167 18.1333 8.075 18.3 7.175 18.3ZM20.9428 18.3C19.9428 18.3 19.0344 18.0833 18.2178 17.65C17.4178 17.2167 16.7261 16.6 16.1428 15.8C15.5594 15 15.1094 14.05 14.7928 12.95C14.4928 11.85 14.3428 10.625 14.3428 9.275C14.3428 8.20833 14.4428 7.21667 14.6428 6.3C14.8428 5.36667 15.1344 4.53333 15.5178 3.8C15.9011 3.05 16.3594 2.41667 16.8928 1.9C17.4261 1.36667 18.0344 0.958332 18.7178 0.675C19.4011 0.391666 20.1428 0.249999 20.9428 0.249999C21.9594 0.249999 22.8678 0.466666 23.6678 0.9C24.4844 1.33333 25.1761 1.95 25.7428 2.75C26.3261 3.55 26.7678 4.5 27.0678 5.6C27.3844 6.7 27.5428 7.925 27.5428 9.275C27.5428 10.3417 27.4428 11.3417 27.2428 12.275C27.0428 13.1917 26.7511 14.025 26.3678 14.775C26.0011 15.5083 25.5511 16.1417 25.0178 16.675C24.4844 17.1917 23.8761 17.5917 23.1928 17.875C22.5094 18.1583 21.7594 18.3 20.9428 18.3ZM20.9428 14.925C21.2428 14.925 21.5094 14.8417 21.7428 14.675C21.9928 14.4917 22.2094 14.2417 22.3928 13.925C22.5928 13.5917 22.7511 13.2 22.8678 12.75C23.0011 12.2833 23.1011 11.7583 23.1678 11.175C23.2344 10.5917 23.2678 9.95833 23.2678 9.275C23.2678 8.425 23.2178 7.65833 23.1178 6.975C23.0178 6.275 22.8678 5.675 22.6678 5.175C22.4678 4.675 22.2178 4.29167 21.9178 4.025C21.6344 3.75833 21.3094 3.625 20.9428 3.625C20.6428 3.625 20.3678 3.71667 20.1178 3.9C19.8844 4.06667 19.6678 4.31667 19.4678 4.65C19.2844 4.96667 19.1261 5.35833 18.9928 5.825C18.8761 6.275 18.7844 6.79167 18.7178 7.375C18.6511 7.95833 18.6178 8.59167 18.6178 9.275C18.6178 10.125 18.6678 10.9 18.7678 11.6C18.8678 12.2833 19.0178 12.875 19.2178 13.375C19.4178 13.875 19.6594 14.2583 19.9428 14.525C20.2428 14.7917 20.5761 14.925 20.9428 14.925ZM29.0518 18V0.55H33.9268L35.0518 4.425C35.3851 5.45833 35.6434 6.39167 35.8268 7.225C36.0268 8.04167 36.1684 8.68333 36.2518 9.15C36.3518 9.61667 36.4018 9.85 36.4018 9.85C36.4018 9.85 36.4518 9.61667 36.5518 9.15C36.6518 8.66667 36.8018 8.01667 37.0018 7.2C37.2018 6.38333 37.4434 5.46667 37.7268 4.45L38.8518 0.55H43.7018V18H39.7268V13.25C39.7101 12.15 39.7101 11.1833 39.7268 10.35C39.7434 9.5 39.7601 8.84167 39.7768 8.375C39.8101 7.89167 39.8268 7.65 39.8268 7.65C39.8268 7.65 39.7684 7.89167 39.6518 8.375C39.5518 8.84167 39.4018 9.48333 39.2018 10.3C39.0018 11.1167 38.7684 12.0417 38.5018 13.075L38.0018 15H34.7768L34.2518 13.075C33.9518 12.025 33.7018 11.0917 33.5018 10.275C33.3018 9.45833 33.1518 8.81667 33.0518 8.35C32.9518 7.88333 32.9018 7.65 32.9018 7.65C32.9018 7.65 32.9101 7.89167 32.9268 8.375C32.9434 8.85833 32.9601 9.525 32.9768 10.375C32.9934 11.2083 33.0018 12.1583 33.0018 13.225V18H29.0518ZM48.7521 12.975V9.6H49.9771C50.2771 9.6 50.5438 9.54167 50.7771 9.425C51.0271 9.29167 51.2438 9.10833 51.4271 8.875C51.6105 8.625 51.7521 8.325 51.8521 7.975C51.9521 7.625 52.0021 7.21667 52.0021 6.75C52.0021 5.81667 51.8105 5.11667 51.4271 4.65C51.0438 4.16667 50.5605 3.925 49.9771 3.925H48.7521V0.55H50.7521C51.9855 0.55 53.0105 0.816666 53.8271 1.35C54.6438 1.86667 55.2521 2.59167 55.6521 3.525C56.0688 4.45833 56.2771 5.53333 56.2771 6.75C56.2771 7.66667 56.1605 8.50833 55.9271 9.275C55.6938 10.025 55.3438 10.6833 54.8771 11.25C54.4271 11.8 53.8521 12.225 53.1521 12.525C52.4688 12.825 51.6688 12.975 50.7521 12.975H48.7521ZM45.7021 18V0.55H49.9271V18H45.7021ZM55.7605 18L59.4105 0.55H66.0105L69.4105 18H65.1105L63.5855 9.55C63.2522 7.95 63.0189 6.68333 62.8855 5.75C62.7689 4.81667 62.7105 4.35 62.7105 4.35C62.7105 4.35 62.6272 4.81667 62.4605 5.75C62.3105 6.68333 62.0772 7.93333 61.7605 9.5L60.0605 18H55.7605ZM58.8855 14.1V10.725H66.7355V14.1H58.8855ZM70.4824 18V0.55H75.0824L78.7074 10.25C78.7074 10.25 78.6908 9.78333 78.6574 8.85C78.6408 7.9 78.6324 6.625 78.6324 5.025V0.55H82.8574V18H78.2074L74.6324 8.25C74.6324 8.25 74.6408 8.725 74.6574 9.675C74.6908 10.6083 74.7074 11.875 74.7074 13.475V18H70.4824ZM87.9123 18V10.95L83.5873 0.55H88.1623L88.6373 2.125C89.1706 3.675 89.5456 4.90833 89.7623 5.825C89.979 6.725 90.0873 7.175 90.0873 7.175C90.0873 7.175 90.204 6.71667 90.4373 5.8C90.6706 4.88333 91.0206 3.65833 91.4873 2.125L91.9623 0.55H96.5623L92.1873 10.95V18H87.9123ZM100.146 18V0.55H105.021L106.146 4.425C106.479 5.45833 106.737 6.39167 106.921 7.225C107.121 8.04167 107.262 8.68333 107.346 9.15C107.446 9.61667 107.496 9.85 107.496 9.85C107.496 9.85 107.546 9.61667 107.646 9.15C107.746 8.66667 107.896 8.01667 108.096 7.2C108.296 6.38333 108.537 5.46667 108.821 4.45L109.946 0.55H114.796V18H110.821V13.25C110.804 12.15 110.804 11.1833 110.821 10.35C110.837 9.5 110.854 8.84167 110.871 8.375C110.904 7.89167 110.921 7.65 110.921 7.65C110.921 7.65 110.862 7.89167 110.746 8.375C110.646 8.84167 110.496 9.48333 110.296 10.3C110.096 11.1167 109.862 12.0417 109.596 13.075L109.096 15H105.871L105.346 13.075C105.046 12.025 104.796 11.0917 104.596 10.275C104.396 9.45833 104.246 8.81667 104.146 8.35C104.046 7.88333 103.996 7.65 103.996 7.65C103.996 7.65 104.004 7.89167 104.021 8.375C104.037 8.85833 104.054 9.525 104.071 10.375C104.087 11.2083 104.096 12.1583 104.096 13.225V18H100.146ZM122.896 18.3C121.896 18.3 120.988 18.0833 120.171 17.65C119.371 17.2167 118.679 16.6 118.096 15.8C117.513 15 117.063 14.05 116.746 12.95C116.446 11.85 116.296 10.625 116.296 9.275C116.296 8.20833 116.396 7.21667 116.596 6.3C116.796 5.36667 117.088 4.53333 117.471 3.8C117.854 3.05 118.313 2.41667 118.846 1.9C119.379 1.36667 119.988 0.958332 120.671 0.675C121.354 0.391666 122.096 0.249999 122.896 0.249999C123.913 0.249999 124.821 0.466666 125.621 0.9C126.438 1.33333 127.129 1.95 127.696 2.75C128.279 3.55 128.721 4.5 129.021 5.6C129.338 6.7 129.496 7.925 129.496 9.275C129.496 10.3417 129.396 11.3417 129.196 12.275C128.996 13.1917 128.704 14.025 128.321 14.775C127.954 15.5083 127.504 16.1417 126.971 16.675C126.438 17.1917 125.829 17.5917 125.146 17.875C124.463 18.1583 123.713 18.3 122.896 18.3ZM122.896 14.925C123.196 14.925 123.463 14.8417 123.696 14.675C123.946 14.4917 124.163 14.2417 124.346 13.925C124.546 13.5917 124.704 13.2 124.821 12.75C124.954 12.2833 125.054 11.7583 125.121 11.175C125.188 10.5917 125.221 9.95833 125.221 9.275C125.221 8.425 125.171 7.65833 125.071 6.975C124.971 6.275 124.821 5.675 124.621 5.175C124.421 4.675 124.171 4.29167 123.871 4.025C123.588 3.75833 123.263 3.625 122.896 3.625C122.596 3.625 122.321 3.71667 122.071 3.9C121.838 4.06667 121.621 4.31667 121.421 4.65C121.238 4.96667 121.079 5.35833 120.946 5.825C120.829 6.275 120.738 6.79167 120.671 7.375C120.604 7.95833 120.571 8.59167 120.571 9.275C120.571 10.125 120.621 10.9 120.721 11.6C120.821 12.2833 120.971 12.875 121.171 13.375C121.371 13.875 121.613 14.2583 121.896 14.525C122.196 14.7917 122.529 14.925 122.896 14.925ZM136.155 18.3C135.272 18.3 134.472 18.15 133.755 17.85C133.038 17.5333 132.422 17.0917 131.905 16.525C131.405 15.9583 131.013 15.275 130.73 14.475C130.447 13.675 130.288 12.7833 130.255 11.8L134.23 11.375C134.23 12.075 134.297 12.6917 134.43 13.225C134.58 13.7417 134.788 14.15 135.055 14.45C135.338 14.7333 135.688 14.875 136.105 14.875C136.388 14.875 136.63 14.8167 136.83 14.7C137.047 14.5667 137.213 14.3917 137.33 14.175C137.463 13.9583 137.53 13.7167 137.53 13.45C137.53 13.1 137.43 12.7917 137.23 12.525C137.047 12.2583 136.788 12.0167 136.455 11.8C136.138 11.5667 135.772 11.35 135.355 11.15C134.955 10.9333 134.538 10.7083 134.105 10.475C133.688 10.225 133.272 9.95 132.855 9.65C132.455 9.35 132.088 9 131.755 8.6C131.438 8.2 131.18 7.73333 130.98 7.2C130.797 6.66667 130.705 6.05 130.705 5.35C130.705 4.6 130.822 3.91667 131.055 3.3C131.305 2.66667 131.655 2.125 132.105 1.675C132.555 1.20833 133.097 0.858332 133.73 0.624999C134.38 0.374999 135.113 0.249999 135.93 0.249999C137.097 0.249999 138.088 0.499999 138.905 1C139.738 1.48333 140.372 2.16667 140.805 3.05C141.238 3.91667 141.455 4.93333 141.455 6.1L137.305 6.45C137.355 5.81667 137.322 5.3 137.205 4.9C137.088 4.48333 136.922 4.175 136.705 3.975C136.505 3.775 136.263 3.675 135.98 3.675C135.78 3.675 135.597 3.725 135.43 3.825C135.28 3.90833 135.155 4.04167 135.055 4.225C134.972 4.40833 134.93 4.63333 134.93 4.9C134.93 5.28333 135.022 5.625 135.205 5.925C135.405 6.225 135.663 6.5 135.98 6.75C136.313 6.98333 136.68 7.21667 137.08 7.45C137.497 7.68333 137.913 7.925 138.33 8.175C138.763 8.40833 139.18 8.675 139.58 8.975C139.997 9.275 140.363 9.61667 140.68 10C141.013 10.3833 141.272 10.825 141.455 11.325C141.655 11.825 141.755 12.4083 141.755 13.075C141.755 14.1083 141.513 15.0167 141.03 15.8C140.547 16.5833 139.88 17.2 139.03 17.65C138.197 18.0833 137.238 18.3 136.155 18.3ZM149.265 18.3C148.248 18.3 147.323 18.0833 146.49 17.65C145.673 17.2167 144.973 16.6 144.39 15.8C143.807 15 143.357 14.05 143.04 12.95C142.74 11.85 142.59 10.625 142.59 9.275C142.59 8.20833 142.69 7.21667 142.89 6.3C143.09 5.36667 143.382 4.53333 143.765 3.8C144.148 3.05 144.615 2.41667 145.165 1.9C145.715 1.36667 146.332 0.958332 147.015 0.675C147.715 0.391666 148.473 0.249999 149.29 0.249999C150.09 0.249999 150.832 0.391666 151.515 0.675C152.215 0.958332 152.832 1.39167 153.365 1.975C153.915 2.55833 154.382 3.29167 154.765 4.175C155.148 5.05833 155.423 6.1 155.59 7.3L151.315 7.7C151.248 6.7 151.115 5.9 150.915 5.3C150.715 4.7 150.465 4.275 150.165 4.025C149.882 3.75833 149.565 3.625 149.215 3.625C148.915 3.625 148.64 3.71667 148.39 3.9C148.157 4.06667 147.94 4.31667 147.74 4.65C147.557 4.96667 147.398 5.35833 147.265 5.825C147.132 6.275 147.032 6.79167 146.965 7.375C146.898 7.95833 146.865 8.59167 146.865 9.275C146.865 10.4083 146.957 11.4 147.14 12.25C147.34 13.1 147.615 13.7583 147.965 14.225C148.315 14.6917 148.723 14.925 149.19 14.925C149.573 14.925 149.915 14.7667 150.215 14.45C150.532 14.1333 150.782 13.7 150.965 13.15C151.165 12.5833 151.282 11.925 151.315 11.175L155.54 11.375C155.473 12.4083 155.273 13.35 154.94 14.2C154.623 15.05 154.19 15.7833 153.64 16.4C153.09 17 152.448 17.4667 151.715 17.8C150.982 18.1333 150.165 18.3 149.265 18.3ZM163.033 18.3C162.033 18.3 161.124 18.0833 160.308 17.65C159.508 17.2167 158.816 16.6 158.233 15.8C157.649 15 157.199 14.05 156.883 12.95C156.583 11.85 156.433 10.625 156.433 9.275C156.433 8.20833 156.533 7.21667 156.733 6.3C156.933 5.36667 157.224 4.53333 157.608 3.8C157.991 3.05 158.449 2.41667 158.983 1.9C159.516 1.36667 160.124 0.958332 160.808 0.675C161.491 0.391666 162.233 0.249999 163.033 0.249999C164.049 0.249999 164.958 0.466666 165.758 0.9C166.574 1.33333 167.266 1.95 167.833 2.75C168.416 3.55 168.858 4.5 169.158 5.6C169.474 6.7 169.633 7.925 169.633 9.275C169.633 10.3417 169.533 11.3417 169.333 12.275C169.133 13.1917 168.841 14.025 168.458 14.775C168.091 15.5083 167.641 16.1417 167.108 16.675C166.574 17.1917 165.966 17.5917 165.283 17.875C164.599 18.1583 163.849 18.3 163.033 18.3ZM163.033 14.925C163.333 14.925 163.599 14.8417 163.833 14.675C164.083 14.4917 164.299 14.2417 164.483 13.925C164.683 13.5917 164.841 13.2 164.958 12.75C165.091 12.2833 165.191 11.7583 165.258 11.175C165.324 10.5917 165.358 9.95833 165.358 9.275C165.358 8.425 165.308 7.65833 165.208 6.975C165.108 6.275 164.958 5.675 164.758 5.175C164.558 4.675 164.308 4.29167 164.008 4.025C163.724 3.75833 163.399 3.625 163.033 3.625C162.733 3.625 162.458 3.71667 162.208 3.9C161.974 4.06667 161.758 4.31667 161.558 4.65C161.374 4.96667 161.216 5.35833 161.083 5.825C160.966 6.275 160.874 6.79167 160.808 7.375C160.741 7.95833 160.708 8.59167 160.708 9.275C160.708 10.125 160.758 10.9 160.858 11.6C160.958 12.2833 161.108 12.875 161.308 13.375C161.508 13.875 161.749 14.2583 162.033 14.525C162.333 14.7917 162.666 14.925 163.033 14.925ZM172.674 18L169.949 0.55H174.349L175.149 6.175C175.416 7.79167 175.591 9.06667 175.674 10C175.774 10.9333 175.824 11.4 175.824 11.4C175.824 11.4 175.883 10.9333 175.999 10C176.116 9.05 176.291 7.78333 176.524 6.2L177.324 0.55H181.449L182.249 6.175C182.533 7.79167 182.716 9.06667 182.799 10C182.899 10.9333 182.949 11.4 182.949 11.4C182.949 11.4 183.008 10.9333 183.124 10C183.258 9.05 183.433 7.78333 183.649 6.2L184.474 0.55H188.849L186.074 18H181.224L180.274 12.85C179.941 11.2333 179.708 9.96667 179.574 9.05C179.441 8.11667 179.374 7.65 179.374 7.65C179.374 7.65 179.299 8.11667 179.149 9.05C178.999 9.98333 178.783 11.2417 178.499 12.825L177.524 18H172.674Z" fill="black"/>
</svg>
