<svg width="10" height="10" viewBox="0 0 10 10" fill="none" xmlns="http://www.w3.org/2000/svg">
<path d="M8.44464 0.000607613C8.70065 0.00812453 8.96473 0.086143 9.17286 0.294111C9.39225 0.513651 9.45044 0.792421 9.42494 1.05381C9.40012 1.30678 9.29768 1.56046 9.17405 1.78362C8.99573 2.10534 8.74616 2.41166 8.52158 2.63241C8.60496 2.76065 8.68184 2.91682 8.72178 3.0925C8.8001 3.43766 8.73197 3.83519 8.37751 4.18964C8.03519 4.53186 7.48354 4.71893 6.99621 4.82426C6.72651 4.88252 6.45618 4.9181 6.2168 4.94019C6.28699 5.16106 6.30611 5.4418 6.17342 5.75179L6.13867 5.82621C5.96197 6.17931 5.6419 6.37807 5.29876 6.49867C4.95901 6.61801 4.55609 6.67531 4.15797 6.71955C3.747 6.76523 3.33946 6.79728 2.93782 6.8617C2.5894 6.91763 2.26845 6.99467 1.99113 7.11433L1.8782 7.16682C1.584 7.64089 1.33543 8.10409 1.1305 8.52942C1.52381 8.29816 1.99549 8.12546 2.49957 8.12546C2.67217 8.12546 2.81208 8.2653 2.81208 8.43788C2.81208 8.6104 2.67216 8.75031 2.49957 8.75031C2.09667 8.75031 1.69411 8.90508 1.34352 9.13165C0.99239 9.35866 0.717978 9.64196 0.571997 9.86085C0.569434 9.86472 0.56554 9.86753 0.56284 9.87122C0.554621 9.88247 0.546115 9.89309 0.536595 9.90296C0.53147 9.90833 0.526164 9.91327 0.520726 9.91821C0.510757 9.92721 0.500575 9.93564 0.489593 9.94326C0.483237 9.94764 0.476693 9.95157 0.470061 9.95545C0.461073 9.96076 0.452061 9.9657 0.442598 9.97007C0.431228 9.97532 0.419672 9.97969 0.407809 9.9835C0.400546 9.98588 0.393264 9.98782 0.385833 9.98963C0.376126 9.992 0.366419 9.99369 0.356531 9.99513C0.345181 9.99675 0.333924 9.99837 0.322355 9.99875C0.314398 9.99906 0.306523 9.9985 0.298548 9.99819C0.286347 9.99763 0.274178 9.99713 0.261927 9.99513C0.252671 9.99363 0.243614 9.99138 0.234457 9.989C0.227457 9.98719 0.220063 9.98644 0.213094 9.98413C0.210081 9.98313 0.207512 9.98094 0.20455 9.97988C0.193487 9.97576 0.182918 9.97063 0.172198 9.9652C0.164048 9.96113 0.156054 9.95714 0.148397 9.95239C0.145341 9.95051 0.141641 9.94951 0.138628 9.94751C0.133309 9.94395 0.129009 9.93914 0.123978 9.93533C0.114446 9.92808 0.105071 9.92096 0.096514 9.91271C0.0902075 9.90671 0.0845259 9.90027 0.0788132 9.89384C0.0711128 9.88509 0.0634937 9.87647 0.0568372 9.86697C0.0517682 9.85978 0.0478181 9.85197 0.0434117 9.84441C0.0380177 9.83517 0.0325737 9.82604 0.0281485 9.81629C0.0236421 9.80636 0.0199856 9.79617 0.0165542 9.7858C0.0137166 9.7773 0.0107228 9.76893 0.00861644 9.76018C0.00644759 9.75112 0.00509121 9.74194 0.0037349 9.73269C0.00203483 9.72119 0.000472206 9.7097 7.2189e-05 9.69795C-0.000196573 9.69001 0.000347288 9.68208 0.000684802 9.67414C0.00120982 9.66196 0.00174107 9.64977 0.0037349 9.63753C0.00510371 9.62909 0.00776003 9.6209 0.00984136 9.61253C0.0117977 9.60466 0.0127353 9.59654 0.0153354 9.58873C0.260552 8.85328 0.738016 7.79179 1.43995 6.68906C1.44895 6.59814 1.46207 6.47473 1.48024 6.32596C1.52065 5.99516 1.58601 5.53634 1.68655 5.02503C1.88542 4.01368 2.22965 2.75041 2.81574 1.87148L2.95736 1.67012C3.29774 1.21013 3.70637 0.820695 4.13111 0.534534C4.61198 0.210581 5.1385 0.00243844 5.62533 0.00243844C6.12167 0.00259466 6.47043 0.226103 6.688 0.443612C6.73244 0.488089 6.77151 0.533546 6.80576 0.576023C7.05158 0.420361 7.3696 0.249266 7.69817 0.13485C7.93393 0.0527762 8.19319 -0.0067031 8.44464 0.000607613ZM9.39987 8.47144C9.46775 8.31291 9.65145 8.23905 9.81008 8.30666C9.96865 8.37452 10.0426 8.55816 9.9749 8.71675C9.67657 9.41339 9.18236 10 8.43733 10C7.89412 9.99994 7.48504 9.68776 7.18728 9.24881C6.88951 9.68776 6.48043 10 5.93722 10C5.39401 9.99994 4.98493 9.68776 4.68716 9.24881C4.3894 9.68776 3.98033 10 3.43711 10C3.26455 9.99994 3.1246 9.8601 3.12459 9.68758C3.12459 9.51506 3.26455 9.37515 3.43711 9.37515C3.79362 9.37515 4.13058 9.09978 4.39967 8.47144L4.42104 8.42994C4.47733 8.33866 4.57775 8.28167 4.68716 8.28167C4.81222 8.28167 4.92544 8.35653 4.97466 8.47144L5.02593 8.58491C5.28601 9.13302 5.60296 9.37509 5.93722 9.37515C6.29374 9.37515 6.63069 9.09978 6.89976 8.47144L6.92114 8.42994C6.97745 8.33866 7.07783 8.28167 7.18728 8.28167C7.31234 8.28167 7.42554 8.35653 7.47479 8.47144L7.52604 8.58491C7.78611 9.13302 8.10307 9.37509 8.43733 9.37515C8.79385 9.37515 9.1308 9.09978 9.39987 8.47144ZM8.42633 0.625455C8.2792 0.621175 8.10032 0.656541 7.90387 0.724912C7.5106 0.86186 7.1179 1.10539 6.90589 1.26434C6.82957 1.32157 6.73082 1.34043 6.63857 1.3162C6.54631 1.29186 6.46987 1.22658 6.43162 1.13924C6.43049 1.13695 6.42856 1.13237 6.42612 1.12765C6.41974 1.11524 6.40856 1.09498 6.39318 1.07029C6.36187 1.02015 6.31293 0.952325 6.24605 0.885398C6.11417 0.753568 5.9161 0.627436 5.62533 0.62728C5.3062 0.62728 4.90076 0.769308 4.48025 1.05259C4.11642 1.29773 3.75943 1.63703 3.4603 2.04112L3.33579 2.21808C2.8223 2.98813 2.49629 4.14748 2.29998 5.14581C2.27058 5.29533 2.24413 5.44018 2.22063 5.57845C3.14355 4.38777 4.33813 3.24569 5.80047 2.53355C5.95566 2.45802 6.14242 2.52245 6.21798 2.67756C6.29355 2.83268 6.22911 3.01938 6.07392 3.09494C4.58187 3.82156 3.36616 5.04783 2.44586 6.31984C2.57653 6.2904 2.70824 6.26579 2.83894 6.24479C3.26029 6.17724 3.70414 6.14113 4.08899 6.09833C4.48645 6.05421 4.82544 6.00254 5.09125 5.90919C5.35357 5.81702 5.50364 5.69842 5.57952 5.54671L5.6119 5.47292C5.67321 5.30552 5.64446 5.17137 5.60027 5.07139C5.57346 5.0109 5.53946 4.9612 5.51239 4.92738C5.49945 4.91123 5.48858 4.89898 5.48189 4.89198L5.47514 4.88588L5.47639 4.8865L5.47758 4.88772C5.38182 4.80109 5.34951 4.66408 5.39582 4.54356C5.44233 4.42308 5.55839 4.34342 5.68759 4.34342C5.95485 4.34337 6.41224 4.31114 6.86439 4.21344C7.33085 4.11262 7.72817 3.95524 7.93562 3.74786C8.13025 3.55316 8.14526 3.37795 8.112 3.23101C8.08307 3.10373 8.01256 2.98358 7.94168 2.89418L7.87212 2.81547C7.80812 2.7515 7.77486 2.66285 7.78118 2.57261C7.78761 2.48238 7.83274 2.39935 7.90506 2.345C8.09719 2.20096 8.4212 1.85252 8.62715 1.48095C8.72953 1.29617 8.78966 1.12802 8.80297 0.993403C8.81528 0.867396 8.78597 0.791077 8.73091 0.735897C8.66428 0.669313 8.56871 0.629642 8.42633 0.625455Z" fill="#141414"/>
</svg>
